# xmcd
#
# Track frame offsets: 
#        183
#        22180
#        44833
#        62450
#        83518
#        103500
#        119985
#        137443
#        153493
#        169340
#
# Disc length: 2725 seconds
#
# Revision: 5
# Processed by: cddbd v1.5.2PL0 Copyright (c) Steve Scherf et al.
# Submitted via: ExactAudioCopyFreeDBPlugin 1.0
#
DISCID=880aa30a
DTITLE=Kenny Rogers - Something Inside So Strong
DYEAR=1989
DGENRE=Country
TTITLE0=Planet Texas
TTITLE1=(Something Inside) So Strong
TTITLE2=If I Knew Then What I Know Now (Feat. Gladys Knight)
TTITLE3=One Night
TTITLE4=There Lies The Difference
TTITLE5=If I Ever Fall In Love Again (Feat. Anne Murray)
TTITLE6=When You Put Your Heart In It
TTITLE7=The Vows Go Unbroken (Always True To You)
TTITLE8=Maybe (Feat. Holly Dunn)
TTITLE9=Love The Way You Do
EXTD=YEAR: 1989
EXTT0=
EXTT1=
EXTT2=
EXTT3=
EXTT4=
EXTT5=
EXTT6=
EXTT7=
EXTT8=
EXTT9=
PLAYORDER=
